# xmcd
#
# Track frame offsets: 
#        150
#        12398
#        26755
#        40796
#        56039
#        76723
#        92126
#        103082
#        111935
#        131840
#        143543
#        156293
#        168166
#        182796
#        193914
#        204746
#        215563
#        232904
#        245925
#        259394
#
# Disc length: 3681 seconds
#
# Revision: 1
# Processed by: cddbd v1.5.2PL0 Copyright (c) Steve Scherf et al.
# Submitted via: ExactAudioCopy v0.95b3
#
DISCID=240e5f14
DTITLE=Various Artist - Gary Davis Style
DYEAR=2003
DGENRE=Blues
TTITLE0=I'm Throwin' Up My Hand - Art Eisinger
TTITLE1=South Carolina Rag - Willie Walker
TTITLE2=Rag, Mama, Rag - Blind Boy Fuller
TTITLE3=Let Us Get Together - Ken Whitely
TTITLE4=I Am the Light of this World - Maria Muldaur
TTITLE5=Will there Be Stars in My Crown - Ernie Hawkins
TTITLE6=Pure Religion - Eric Noden
TTITLE7=Devil's Dream - Pat Conte
TTITLE8=I Heard the Angels Singing - Wm Lee Ellis
TTITLE9=United States March - Ellen Britton
TTITLE10=Sit Down on the Banks - Mary Flower
TTITLE11=Twelve Gates to the City - John Cephus and Phil Wiggins
TTITLE12=Hesitation Blues - Ian Buchanin
TTITLE13=Gary Davis Style - Perry Lederman
TTITLE14=Samson and Deliliah I - Peter, Paul, and Mary
TTITLE15=Samson and Deliliah II - Mitch Greenhill and Mayne Smith
TTITLE16=God Knows How Much We Can Bear - Penny Lang
TTITLE17=Where'd You Get Your Liquor From, Hesitation Blues - Jerry Ri
TTITLE17=cks
TTITLE18=Soon My Work Will All Be Done - Dave Van Ronk
TTITLE19=I Will Do My Last Singing in this Land - Rick Ruskin
EXTD=YEAR: 2003 ID3G: 0
EXTT0=
EXTT1=
EXTT2=
EXTT3=
EXTT4=
EXTT5=
EXTT6=
EXTT7=
EXTT8=
EXTT9=
EXTT10=
EXTT11=
EXTT12=
EXTT13=
EXTT14=
EXTT15=
EXTT16=
EXTT17=
EXTT18=
EXTT19=
PLAYORDER=
